<svg xmlns="http://www.w3.org/2000/svg" xmlns:xlink="http://www.w3.org/1999/xlink" width="500" zoomAndPan="magnify" viewBox="0 0 375 374.999991" height="500" preserveAspectRatio="xMidYMid meet" version="1.2"><defs><clipPath id="3c8ba5895c"><path d="M 160 6.59375 L 248 6.59375 L 248 109 L 160 109 Z M 160 6.59375 "/></clipPath></defs><g id="bb8ea45f9b"><g style="fill:#3871c1;fill-opacity:1;"><g transform="translate(157.42126, 185.185013)"><path style="stroke:none" d="M 2.546875 0.0625 C 2.390625 0.0625 2.257812 0.0234375 2.15625 -0.046875 C 2.050781 -0.128906 1.96875 -0.253906 1.90625 -0.421875 L 0.359375 -4.78125 C 0.285156 -4.976562 0.296875 -5.144531 0.390625 -5.28125 C 0.484375 -5.414062 0.648438 -5.484375 0.890625 -5.484375 C 1.054688 -5.484375 1.179688 -5.445312 1.265625 -5.375 C 1.359375 -5.300781 1.429688 -5.179688 1.484375 -5.015625 L 2.765625 -1.234375 L 2.421875 -1.234375 L 3.765625 -5 C 3.828125 -5.164062 3.898438 -5.285156 3.984375 -5.359375 C 4.078125 -5.441406 4.195312 -5.484375 4.34375 -5.484375 C 4.488281 -5.484375 4.601562 -5.441406 4.6875 -5.359375 C 4.78125 -5.285156 4.859375 -5.164062 4.921875 -5 L 6.203125 -1.234375 L 5.90625 -1.234375 L 7.203125 -5.015625 C 7.253906 -5.171875 7.328125 -5.285156 7.421875 -5.359375 C 7.515625 -5.441406 7.640625 -5.484375 7.796875 -5.484375 C 7.992188 -5.484375 8.140625 -5.414062 8.234375 -5.28125 C 8.328125 -5.144531 8.335938 -4.976562 8.265625 -4.78125 L 6.703125 -0.40625 C 6.640625 -0.25 6.554688 -0.128906 6.453125 -0.046875 C 6.359375 0.0234375 6.226562 0.0625 6.0625 0.0625 C 5.894531 0.0625 5.765625 0.0234375 5.671875 -0.046875 C 5.578125 -0.128906 5.5 -0.253906 5.4375 -0.421875 L 4.21875 -3.84375 L 4.40625 -3.84375 L 3.171875 -0.40625 C 3.109375 -0.25 3.03125 -0.128906 2.9375 -0.046875 C 2.84375 0.0234375 2.710938 0.0625 2.546875 0.0625 Z M 2.546875 0.0625 "/></g></g><g style="fill:#3871c1;fill-opacity:1;"><g transform="translate(166.034179, 185.185013)"><path style="stroke:none" d="M 0.703125 0.0625 C 0.554688 0.0625 0.4375 0.03125 0.34375 -0.03125 C 0.257812 -0.09375 0.203125 -0.179688 0.171875 -0.296875 C 0.148438 -0.410156 0.175781 -0.535156 0.25 -0.671875 L 2.21875 -4.984375 C 2.300781 -5.160156 2.394531 -5.285156 2.5 -5.359375 C 2.613281 -5.441406 2.742188 -5.484375 2.890625 -5.484375 C 3.046875 -5.484375 3.175781 -5.441406 3.28125 -5.359375 C 3.394531 -5.285156 3.492188 -5.160156 3.578125 -4.984375 L 5.5625 -0.671875 C 5.625 -0.535156 5.644531 -0.410156 5.625 -0.296875 C 5.613281 -0.179688 5.5625 -0.09375 5.46875 -0.03125 C 5.382812 0.03125 5.273438 0.0625 5.140625 0.0625 C 4.960938 0.0625 4.828125 0.0234375 4.734375 -0.046875 C 4.640625 -0.128906 4.554688 -0.257812 4.484375 -0.4375 L 4.015625 -1.5 L 4.5 -1.171875 L 1.296875 -1.171875 L 1.765625 -1.5 L 1.3125 -0.4375 C 1.238281 -0.257812 1.160156 -0.128906 1.078125 -0.046875 C 0.992188 0.0234375 0.867188 0.0625 0.703125 0.0625 Z M 2.890625 -4.15625 L 1.90625 -1.8125 L 1.6875 -2.109375 L 4.09375 -2.109375 L 3.890625 -1.8125 Z M 2.890625 -4.15625 "/></g></g><g style="fill:#3871c1;fill-opacity:1;"><g transform="translate(171.824831, 185.185013)"><path style="stroke:none" d="M 1.140625 0.0625 C 0.953125 0.0625 0.804688 0.0078125 0.703125 -0.09375 C 0.597656 -0.195312 0.546875 -0.347656 0.546875 -0.546875 L 0.546875 -4.8125 C 0.546875 -5.007812 0.597656 -5.160156 0.703125 -5.265625 C 0.804688 -5.367188 0.957031 -5.421875 1.15625 -5.421875 L 3.015625 -5.421875 C 3.617188 -5.421875 4.082031 -5.273438 4.40625 -4.984375 C 4.738281 -4.691406 4.90625 -4.285156 4.90625 -3.765625 C 4.90625 -3.421875 4.832031 -3.125 4.6875 -2.875 C 4.539062 -2.632812 4.328125 -2.445312 4.046875 -2.3125 C 3.765625 -2.175781 3.421875 -2.109375 3.015625 -2.109375 L 3.078125 -2.25 L 3.390625 -2.25 C 3.609375 -2.25 3.796875 -2.191406 3.953125 -2.078125 C 4.117188 -1.972656 4.257812 -1.816406 4.375 -1.609375 L 4.859375 -0.71875 C 4.929688 -0.59375 4.960938 -0.46875 4.953125 -0.34375 C 4.953125 -0.21875 4.90625 -0.117188 4.8125 -0.046875 C 4.726562 0.0234375 4.601562 0.0625 4.4375 0.0625 C 4.269531 0.0625 4.128906 0.03125 4.015625 -0.03125 C 3.910156 -0.101562 3.820312 -0.21875 3.75 -0.375 L 3 -1.734375 C 2.925781 -1.867188 2.832031 -1.960938 2.71875 -2.015625 C 2.613281 -2.066406 2.484375 -2.09375 2.328125 -2.09375 L 1.734375 -2.09375 L 1.734375 -0.546875 C 1.734375 -0.347656 1.679688 -0.195312 1.578125 -0.09375 C 1.484375 0.0078125 1.335938 0.0625 1.140625 0.0625 Z M 1.734375 -2.953125 L 2.8125 -2.953125 C 3.125 -2.953125 3.359375 -3.015625 3.515625 -3.140625 C 3.679688 -3.273438 3.765625 -3.472656 3.765625 -3.734375 C 3.765625 -3.984375 3.679688 -4.171875 3.515625 -4.296875 C 3.359375 -4.421875 3.125 -4.484375 2.8125 -4.484375 L 1.734375 -4.484375 Z M 1.734375 -2.953125 "/></g></g><g style="fill:#3871c1;fill-opacity:1;"><g transform="translate(177.177149, 185.185013)"><path style="stroke:none" d="M 1.171875 0 C 0.972656 0 0.816406 -0.0507812 0.703125 -0.15625 C 0.597656 -0.269531 0.546875 -0.425781 0.546875 -0.625 L 0.546875 -4.796875 C 0.546875 -4.992188 0.597656 -5.144531 0.703125 -5.25 C 0.816406 -5.363281 0.972656 -5.421875 1.171875 -5.421875 L 2.671875 -5.421875 C 3.597656 -5.421875 4.3125 -5.1875 4.8125 -4.71875 C 5.320312 -4.25 5.578125 -3.582031 5.578125 -2.71875 C 5.578125 -2.28125 5.507812 -1.890625 5.375 -1.546875 C 5.25 -1.210938 5.0625 -0.929688 4.8125 -0.703125 C 4.5625 -0.472656 4.253906 -0.296875 3.890625 -0.171875 C 3.535156 -0.0546875 3.128906 0 2.671875 0 Z M 1.734375 -0.96875 L 2.59375 -0.96875 C 2.882812 -0.96875 3.140625 -1.003906 3.359375 -1.078125 C 3.578125 -1.148438 3.753906 -1.257812 3.890625 -1.40625 C 4.035156 -1.550781 4.144531 -1.734375 4.21875 -1.953125 C 4.289062 -2.171875 4.328125 -2.425781 4.328125 -2.71875 C 4.328125 -3.300781 4.179688 -3.734375 3.890625 -4.015625 C 3.597656 -4.296875 3.164062 -4.4375 2.59375 -4.4375 L 1.734375 -4.4375 Z M 1.734375 -0.96875 "/></g></g><g style="fill:#3871c1;fill-opacity:1;"><g transform="translate(183.129293, 185.185013)"><path style="stroke:none" d="M 1.140625 0.0625 C 0.953125 0.0625 0.804688 0.0078125 0.703125 -0.09375 C 0.597656 -0.195312 0.546875 -0.347656 0.546875 -0.546875 L 0.546875 -4.875 C 0.546875 -5.070312 0.597656 -5.222656 0.703125 -5.328125 C 0.804688 -5.429688 0.953125 -5.484375 1.140625 -5.484375 C 1.335938 -5.484375 1.484375 -5.429688 1.578125 -5.328125 C 1.679688 -5.222656 1.734375 -5.070312 1.734375 -4.875 L 1.734375 -0.546875 C 1.734375 -0.347656 1.679688 -0.195312 1.578125 -0.09375 C 1.484375 0.0078125 1.335938 0.0625 1.140625 0.0625 Z M 1.140625 0.0625 "/></g></g><g style="fill:#3871c1;fill-opacity:1;"><g transform="translate(185.413252, 185.185013)"><path style="stroke:none" d="M 1.171875 0 C 0.972656 0 0.816406 -0.0507812 0.703125 -0.15625 C 0.597656 -0.269531 0.546875 -0.425781 0.546875 -0.625 L 0.546875 -4.796875 C 0.546875 -4.992188 0.597656 -5.144531 0.703125 -5.25 C 0.816406 -5.363281 0.972656 -5.421875 1.171875 -5.421875 L 3.84375 -5.421875 C 4 -5.421875 4.117188 -5.378906 4.203125 -5.296875 C 4.285156 -5.222656 4.328125 -5.109375 4.328125 -4.953125 C 4.328125 -4.804688 4.285156 -4.691406 4.203125 -4.609375 C 4.117188 -4.523438 4 -4.484375 3.84375 -4.484375 L 1.6875 -4.484375 L 1.6875 -3.21875 L 3.671875 -3.21875 C 3.828125 -3.21875 3.945312 -3.175781 4.03125 -3.09375 C 4.113281 -3.019531 4.15625 -2.90625 4.15625 -2.75 C 4.15625 -2.59375 4.113281 -2.472656 4.03125 -2.390625 C 3.945312 -2.316406 3.828125 -2.28125 3.671875 -2.28125 L 1.6875 -2.28125 L 1.6875 -0.9375 L 3.84375 -0.9375 C 4 -0.9375 4.117188 -0.894531 4.203125 -0.8125 C 4.285156 -0.726562 4.328125 -0.613281 4.328125 -0.46875 C 4.328125 -0.3125 4.285156 -0.191406 4.203125 -0.109375 C 4.117188 -0.0351562 4 0 3.84375 0 Z M 1.171875 0 "/></g></g><g style="fill:#3871c1;fill-opacity:1;"><g transform="translate(190.06577, 185.185013)"><path style="stroke:none" d="M 1.140625 0.0625 C 0.953125 0.0625 0.804688 0.0078125 0.703125 -0.09375 C 0.597656 -0.195312 0.546875 -0.347656 0.546875 -0.546875 L 0.546875 -4.8125 C 0.546875 -5.007812 0.597656 -5.160156 0.703125 -5.265625 C 0.804688 -5.367188 0.957031 -5.421875 1.15625 -5.421875 L 3.015625 -5.421875 C 3.617188 -5.421875 4.082031 -5.273438 4.40625 -4.984375 C 4.738281 -4.691406 4.90625 -4.285156 4.90625 -3.765625 C 4.90625 -3.421875 4.832031 -3.125 4.6875 -2.875 C 4.539062 -2.632812 4.328125 -2.445312 4.046875 -2.3125 C 3.765625 -2.175781 3.421875 -2.109375 3.015625 -2.109375 L 3.078125 -2.25 L 3.390625 -2.25 C 3.609375 -2.25 3.796875 -2.191406 3.953125 -2.078125 C 4.117188 -1.972656 4.257812 -1.816406 4.375 -1.609375 L 4.859375 -0.71875 C 4.929688 -0.59375 4.960938 -0.46875 4.953125 -0.34375 C 4.953125 -0.21875 4.90625 -0.117188 4.8125 -0.046875 C 4.726562 0.0234375 4.601562 0.0625 4.4375 0.0625 C 4.269531 0.0625 4.128906 0.03125 4.015625 -0.03125 C 3.910156 -0.101562 3.820312 -0.21875 3.75 -0.375 L 3 -1.734375 C 2.925781 -1.867188 2.832031 -1.960938 2.71875 -2.015625 C 2.613281 -2.066406 2.484375 -2.09375 2.328125 -2.09375 L 1.734375 -2.09375 L 1.734375 -0.546875 C 1.734375 -0.347656 1.679688 -0.195312 1.578125 -0.09375 C 1.484375 0.0078125 1.335938 0.0625 1.140625 0.0625 Z M 1.734375 -2.953125 L 2.8125 -2.953125 C 3.125 -2.953125 3.359375 -3.015625 3.515625 -3.140625 C 3.679688 -3.273438 3.765625 -3.472656 3.765625 -3.734375 C 3.765625 -3.984375 3.679688 -4.171875 3.515625 -4.296875 C 3.359375 -4.421875 3.125 -4.484375 2.8125 -4.484375 L 1.734375 -4.484375 Z M 1.734375 -2.953125 "/></g></g><g style="fill:#3871c1;fill-opacity:1;"><g transform="translate(195.418087, 185.185013)"><path style="stroke:none" d="M 1.171875 0 C 0.972656 0 0.816406 -0.0507812 0.703125 -0.15625 C 0.597656 -0.269531 0.546875 -0.425781 0.546875 -0.625 L 0.546875 -4.796875 C 0.546875 -4.992188 0.597656 -5.144531 0.703125 -5.25 C 0.816406 -5.363281 0.972656 -5.421875 1.171875 -5.421875 L 3.84375 -5.421875 C 4 -5.421875 4.117188 -5.378906 4.203125 -5.296875 C 4.285156 -5.222656 4.328125 -5.109375 4.328125 -4.953125 C 4.328125 -4.804688 4.285156 -4.691406 4.203125 -4.609375 C 4.117188 -4.523438 4 -4.484375 3.84375 -4.484375 L 1.6875 -4.484375 L 1.6875 -3.21875 L 3.671875 -3.21875 C 3.828125 -3.21875 3.945312 -3.175781 4.03125 -3.09375 C 4.113281 -3.019531 4.15625 -2.90625 4.15625 -2.75 C 4.15625 -2.59375 4.113281 -2.472656 4.03125 -2.390625 C 3.945312 -2.316406 3.828125 -2.28125 3.671875 -2.28125 L 1.6875 -2.28125 L 1.6875 -0.9375 L 3.84375 -0.9375 C 4 -0.9375 4.117188 -0.894531 4.203125 -0.8125 C 4.285156 -0.726562 4.328125 -0.613281 4.328125 -0.46875 C 4.328125 -0.3125 4.285156 -0.191406 4.203125 -0.109375 C 4.117188 -0.0351562 4 0 3.84375 0 Z M 1.171875 0 "/></g></g><g style="fill:#3871c1;fill-opacity:1;"><g transform="translate(200.070605, 185.185013)"><path style="stroke:none" d=""/></g></g><g style="fill:#3871c1;fill-opacity:1;"><g transform="translate(202.216147, 185.185013)"><path style="stroke:none" d="M 1.140625 0.0625 C 0.953125 0.0625 0.804688 0.0078125 0.703125 -0.09375 C 0.597656 -0.195312 0.546875 -0.347656 0.546875 -0.546875 L 0.546875 -4.875 C 0.546875 -5.070312 0.597656 -5.222656 0.703125 -5.328125 C 0.804688 -5.429688 0.953125 -5.484375 1.140625 -5.484375 C 1.335938 -5.484375 1.484375 -5.429688 1.578125 -5.328125 C 1.679688 -5.222656 1.734375 -5.070312 1.734375 -4.875 L 1.734375 -0.546875 C 1.734375 -0.347656 1.679688 -0.195312 1.578125 -0.09375 C 1.484375 0.0078125 1.335938 0.0625 1.140625 0.0625 Z M 1.140625 0.0625 "/></g></g><g style="fill:#3871c1;fill-opacity:1;"><g transform="translate(204.500107, 185.185013)"><path style="stroke:none" d="M 1.09375 0.0625 C 0.914062 0.0625 0.78125 0.015625 0.6875 -0.078125 C 0.59375 -0.179688 0.546875 -0.320312 0.546875 -0.5 L 0.546875 -4.890625 C 0.546875 -5.085938 0.59375 -5.234375 0.6875 -5.328125 C 0.78125 -5.429688 0.90625 -5.484375 1.0625 -5.484375 C 1.207031 -5.484375 1.316406 -5.457031 1.390625 -5.40625 C 1.460938 -5.351562 1.546875 -5.265625 1.640625 -5.140625 L 4.34375 -1.703125 L 4.140625 -1.703125 L 4.140625 -4.921875 C 4.140625 -5.097656 4.1875 -5.234375 4.28125 -5.328125 C 4.375 -5.429688 4.507812 -5.484375 4.6875 -5.484375 C 4.863281 -5.484375 5 -5.429688 5.09375 -5.328125 C 5.195312 -5.234375 5.25 -5.097656 5.25 -4.921875 L 5.25 -0.484375 C 5.25 -0.316406 5.203125 -0.179688 5.109375 -0.078125 C 5.023438 0.015625 4.910156 0.0625 4.765625 0.0625 C 4.617188 0.0625 4.503906 0.0351562 4.421875 -0.015625 C 4.335938 -0.0664062 4.242188 -0.15625 4.140625 -0.28125 L 1.453125 -3.71875 L 1.65625 -3.71875 L 1.65625 -0.5 C 1.65625 -0.320312 1.609375 -0.179688 1.515625 -0.078125 C 1.421875 0.015625 1.28125 0.0625 1.09375 0.0625 Z M 1.09375 0.0625 "/></g></g><g style="fill:#3871c1;fill-opacity:1;"><g transform="translate(210.290758, 185.185013)"><path style="stroke:none" d="M 3.171875 0.078125 C 2.585938 0.078125 2.085938 -0.0351562 1.671875 -0.265625 C 1.253906 -0.492188 0.9375 -0.816406 0.71875 -1.234375 C 0.5 -1.648438 0.390625 -2.144531 0.390625 -2.71875 C 0.390625 -3.144531 0.453125 -3.523438 0.578125 -3.859375 C 0.703125 -4.203125 0.882812 -4.492188 1.125 -4.734375 C 1.363281 -4.984375 1.65625 -5.171875 2 -5.296875 C 2.34375 -5.429688 2.734375 -5.5 3.171875 -5.5 C 3.429688 -5.5 3.691406 -5.46875 3.953125 -5.40625 C 4.210938 -5.34375 4.441406 -5.253906 4.640625 -5.140625 C 4.765625 -5.066406 4.847656 -4.972656 4.890625 -4.859375 C 4.941406 -4.753906 4.957031 -4.644531 4.9375 -4.53125 C 4.925781 -4.425781 4.882812 -4.335938 4.8125 -4.265625 C 4.75 -4.191406 4.664062 -4.144531 4.5625 -4.125 C 4.457031 -4.101562 4.34375 -4.125 4.21875 -4.1875 C 4.0625 -4.28125 3.894531 -4.347656 3.71875 -4.390625 C 3.550781 -4.429688 3.382812 -4.453125 3.21875 -4.453125 C 2.875 -4.453125 2.582031 -4.382812 2.34375 -4.25 C 2.113281 -4.113281 1.9375 -3.914062 1.8125 -3.65625 C 1.695312 -3.40625 1.640625 -3.09375 1.640625 -2.71875 C 1.640625 -2.34375 1.695312 -2.023438 1.8125 -1.765625 C 1.9375 -1.503906 2.113281 -1.304688 2.34375 -1.171875 C 2.582031 -1.035156 2.875 -0.96875 3.21875 -0.96875 C 3.375 -0.96875 3.535156 -0.988281 3.703125 -1.03125 C 3.878906 -1.070312 4.050781 -1.132812 4.21875 -1.21875 C 4.34375 -1.289062 4.457031 -1.316406 4.5625 -1.296875 C 4.675781 -1.273438 4.765625 -1.226562 4.828125 -1.15625 C 4.898438 -1.082031 4.941406 -0.992188 4.953125 -0.890625 C 4.972656 -0.785156 4.960938 -0.679688 4.921875 -0.578125 C 4.878906 -0.484375 4.804688 -0.398438 4.703125 -0.328125 C 4.503906 -0.191406 4.265625 -0.0859375 3.984375 -0.015625 C 3.710938 0.046875 3.441406 0.078125 3.171875 0.078125 Z M 3.171875 0.078125 "/></g></g><g style="fill:#3871c1;fill-opacity:1;"><g transform="translate(215.550793, 185.185013)"><path style="stroke:none" d="M 1 0.03125 C 0.800781 0.03125 0.640625 -0.0234375 0.515625 -0.140625 C 0.398438 -0.265625 0.34375 -0.425781 0.34375 -0.625 C 0.34375 -0.8125 0.398438 -0.960938 0.515625 -1.078125 C 0.640625 -1.203125 0.800781 -1.265625 1 -1.265625 C 1.207031 -1.265625 1.367188 -1.203125 1.484375 -1.078125 C 1.597656 -0.960938 1.65625 -0.8125 1.65625 -0.625 C 1.65625 -0.425781 1.597656 -0.265625 1.484375 -0.140625 C 1.367188 -0.0234375 1.207031 0.03125 1 0.03125 Z M 1 0.03125 "/></g></g><path style=" stroke:none;fill-rule:nonzero;fill:#3871c1;fill-opacity:1;" d="M 91.957031 271.320312 L 61.113281 224.277344 C 61.113281 224.277344 100.894531 172.710938 116.609375 77.921875 C 116.609375 77.921875 128.042969 80.230469 141.726562 62.375 L 160.417969 139.800781 L 146.570312 249.820312 L 91.957031 271.320312 "/><path style=" stroke:none;fill-rule:nonzero;fill:#4fa9e3;fill-opacity:1;" d="M 266.441406 271.320312 L 316.269531 271.320312 C 311.75 259.769531 307.582031 247.871094 303.757812 235.882812 C 292.457031 248.089844 279.949219 259.976562 266.441406 271.320312 "/><path style=" stroke:none;fill-rule:nonzero;fill:#4fa9e3;fill-opacity:1;" d="M 224.835938 219.199219 C 247.808594 202.175781 268.164062 183.046875 284.363281 163.636719 C 271.664062 107.269531 266.5 62.375 266.5 62.375 C 258.789062 65.632812 251.105469 68.035156 243.550781 69.796875 L 243.550781 103.476562 C 243.550781 105.722656 241.730469 107.542969 239.484375 107.542969 C 237.242188 107.542969 235.421875 105.722656 235.421875 103.476562 L 235.421875 71.457031 C 224.488281 73.386719 213.9375 74.058594 204.113281 74.058594 C 191.761719 74.058594 178.25 73 164.292969 69.710938 L 164.292969 103.476562 C 164.292969 105.722656 162.472656 107.542969 160.226562 107.542969 C 157.984375 107.542969 156.160156 105.722656 156.160156 103.476562 L 156.160156 67.546875 C 151.378906 66.121094 146.558594 64.414062 141.726562 62.375 C 141.726562 62.375 128.402344 178.167969 91.957031 271.320312 L 121.394531 271.320312 C 154.027344 262.824219 191.015625 244.261719 224.835938 219.199219 "/><path style=" stroke:none;fill-rule:nonzero;fill:#f08114;fill-opacity:1;" d="M 250.679688 262.527344 C 154.371094 333.898438 49.566406 355.6875 16.589844 311.191406 C 12.945312 306.273438 10.328125 300.746094 8.691406 294.714844 C 8.644531 306.769531 11.664062 317.4375 18.089844 326.105469 C 49.128906 367.988281 147.78125 347.476562 238.4375 280.292969 C 275.019531 253.183594 304.710938 222.609375 325.074219 193.035156 C 305.191406 216.9375 280.023438 240.777344 250.679688 262.527344 "/><path style=" stroke:none;fill-rule:nonzero;fill:#f08114;fill-opacity:1;" d="M 366.667969 147.53125 C 368.796875 108.03125 360.886719 65.792969 360.886719 65.792969 C 360.886719 65.792969 333.550781 95.265625 300.363281 113.003906 L 323.285156 122.90625 C 307.4375 156.789062 274.855469 194.964844 230.980469 227.484375 C 151.363281 286.488281 64.71875 304.5 37.457031 267.71875 C 21.574219 246.277344 29.367188 210.964844 54.382812 173.550781 C 18.695312 220.863281 5.910156 266.925781 25.839844 293.816406 C 56.878906 335.699219 155.53125 315.1875 246.183594 248 C 293.996094 212.570312 330.023438 171.242188 348.855469 133.945312 L 366.667969 147.53125 "/><g clip-rule="nonzero" clip-path="url(#3c8ba5895c)"><path style=" stroke:none;fill-rule:nonzero;fill:#3871c1;fill-opacity:1;" d="M 168.546875 103.964844 L 168.546875 51.074219 C 168.546875 31.464844 184.234375 15.207031 203.84375 15.0625 C 223.609375 14.914062 239.679688 30.898438 239.679688 50.628906 L 239.679688 103.964844 C 239.679688 106.210938 241.496094 108.03125 243.742188 108.03125 C 245.988281 108.03125 247.804688 106.210938 247.804688 103.964844 L 247.804688 51.183594 C 247.804688 27.128906 228.597656 7.164062 204.542969 6.9375 C 180.253906 6.699219 160.417969 26.386719 160.417969 50.628906 L 160.417969 103.964844 C 160.417969 106.210938 162.238281 108.03125 164.484375 108.03125 C 166.726562 108.03125 168.546875 106.210938 168.546875 103.964844 "/></g></g></svg>