<svg xmlns="http://www.w3.org/2000/svg" xmlns:xlink="http://www.w3.org/1999/xlink" width="200" zoomAndPan="magnify" viewBox="0 0 150 149.999998" height="200" preserveAspectRatio="xMidYMid meet" version="1.2"><defs><clipPath id="ac1ecb9906"><path d="M 63 1.03125 L 100 1.03125 L 100 43 L 63 43 Z M 63 1.03125 "/></clipPath></defs><g id="d32775be26"><path style=" stroke:none;fill-rule:nonzero;fill:#3871c1;fill-opacity:1;" d="M 35.523438 110.328125 L 22.789062 90.90625 C 22.789062 90.90625 39.214844 69.617188 45.703125 30.480469 C 45.703125 30.480469 50.421875 31.433594 56.070312 24.0625 L 63.789062 56.027344 L 58.070312 101.449219 L 35.523438 110.328125 "/><path style=" stroke:none;fill-rule:nonzero;fill:#4fa9e3;fill-opacity:1;" d="M 107.558594 110.328125 L 128.132812 110.328125 C 126.265625 105.558594 124.546875 100.644531 122.964844 95.695312 C 118.300781 100.734375 113.136719 105.644531 107.558594 110.328125 "/><path style=" stroke:none;fill-rule:nonzero;fill:#4fa9e3;fill-opacity:1;" d="M 90.382812 88.808594 C 99.867188 81.78125 108.273438 73.882812 114.957031 65.871094 C 109.714844 42.597656 107.585938 24.0625 107.585938 24.0625 C 104.402344 25.40625 101.226562 26.398438 98.109375 27.128906 L 98.109375 41.03125 C 98.109375 41.960938 97.359375 42.710938 96.429688 42.710938 C 95.503906 42.710938 94.753906 41.960938 94.753906 41.03125 L 94.753906 27.8125 C 90.242188 28.609375 85.882812 28.886719 81.828125 28.886719 C 76.726562 28.886719 71.152344 28.449219 65.386719 27.089844 L 65.386719 41.03125 C 65.386719 41.960938 64.636719 42.710938 63.710938 42.710938 C 62.785156 42.710938 62.03125 41.960938 62.03125 41.03125 L 62.03125 26.199219 C 60.054688 25.609375 58.066406 24.902344 56.070312 24.0625 C 56.070312 24.0625 50.570312 71.867188 35.523438 110.328125 L 47.675781 110.328125 C 61.148438 106.820312 76.421875 99.15625 90.382812 88.808594 "/><path style=" stroke:none;fill-rule:nonzero;fill:#f08114;fill-opacity:1;" d="M 101.050781 106.695312 C 61.292969 136.164062 18.023438 145.160156 4.410156 126.789062 C 2.902344 124.757812 1.824219 122.476562 1.148438 119.984375 C 1.128906 124.960938 2.375 129.367188 5.027344 132.945312 C 17.84375 150.238281 58.570312 141.769531 96 114.03125 C 111.101562 102.839844 123.359375 90.214844 131.765625 78.007812 C 123.558594 87.875 113.167969 97.71875 101.050781 106.695312 "/><path style=" stroke:none;fill-rule:nonzero;fill:#f08114;fill-opacity:1;" d="M 148.9375 59.21875 C 149.816406 42.914062 146.550781 25.472656 146.550781 25.472656 C 146.550781 25.472656 135.265625 37.640625 121.566406 44.964844 L 131.027344 49.054688 C 124.484375 63.042969 111.035156 78.804688 92.921875 92.226562 C 60.050781 116.589844 24.277344 124.027344 13.023438 108.839844 C 6.464844 99.988281 9.683594 85.410156 20.011719 69.960938 C 5.277344 89.496094 0 108.511719 8.226562 119.613281 C 21.042969 136.90625 61.769531 128.4375 99.195312 100.699219 C 118.9375 86.070312 133.808594 69.007812 141.585938 53.609375 L 148.9375 59.21875 "/><g clip-rule="nonzero" clip-path="url(#ac1ecb9906)"><path style=" stroke:none;fill-rule:nonzero;fill:#3871c1;fill-opacity:1;" d="M 67.144531 41.234375 L 67.144531 19.398438 C 67.144531 11.300781 73.621094 4.589844 81.714844 4.527344 C 89.878906 4.46875 96.511719 11.066406 96.511719 19.214844 L 96.511719 41.234375 C 96.511719 42.160156 97.261719 42.914062 98.1875 42.914062 C 99.117188 42.914062 99.867188 42.160156 99.867188 41.234375 L 99.867188 19.441406 C 99.867188 9.511719 91.9375 1.269531 82.003906 1.175781 C 71.976562 1.078125 63.789062 9.207031 63.789062 19.214844 L 63.789062 41.234375 C 63.789062 42.160156 64.539062 42.914062 65.464844 42.914062 C 66.394531 42.914062 67.144531 42.160156 67.144531 41.234375 "/></g><g style="fill:#ffffff;fill-opacity:1;"><g transform="translate(97.14672, 122.768769)"><path style="stroke:none" d="M 1.386719 -3.828125 C 1.542969 -3.703125 1.828125 -3.527344 2.234375 -3.296875 C 2.589844 -3.101562 2.921875 -3 3.226562 -3 C 3.28125 -3 3.324219 -3.003906 3.355469 -3.015625 C 3.359375 -3.015625 3.363281 -3.015625 3.367188 -3.015625 C 3.363281 -3.015625 3.355469 -3.011719 3.351562 -3.007812 C 3.328125 -2.988281 3.3125 -2.96875 3.300781 -2.945312 C 3.296875 -2.9375 3.296875 -2.929688 3.292969 -2.925781 C 3.296875 -2.925781 3.296875 -2.933594 3.296875 -2.9375 C 3.296875 -2.933594 3.296875 -2.925781 3.300781 -2.917969 C 3.296875 -2.921875 3.292969 -2.925781 3.289062 -2.929688 C 3.21875 -2.996094 3.058594 -3.089844 2.8125 -3.203125 C 2.507812 -3.347656 2.277344 -3.460938 2.117188 -3.546875 C 1.945312 -3.636719 1.726562 -3.78125 1.460938 -3.976562 C 1.164062 -4.195312 0.929688 -4.429688 0.765625 -4.675781 L 1.203125 -4.96875 L 0.773438 -4.667969 C 0.335938 -5.289062 0.117188 -6.066406 0.117188 -6.996094 C 0.117188 -7.96875 0.480469 -8.792969 1.203125 -9.460938 C 1.914062 -10.117188 2.835938 -10.445312 3.960938 -10.445312 C 4.675781 -10.445312 5.339844 -10.367188 5.949219 -10.214844 C 6.289062 -10.125 6.558594 -10.019531 6.753906 -9.894531 C 7.042969 -9.707031 7.203125 -9.46875 7.226562 -9.179688 L 7.226562 -9.054688 C 7.226562 -8.65625 7.113281 -8.179688 6.878906 -7.617188 C 6.773438 -7.351562 6.675781 -7.144531 6.597656 -6.992188 C 6.484375 -6.773438 6.367188 -6.625 6.253906 -6.546875 L 5.996094 -6.375 L 5.71875 -6.515625 C 5.199219 -6.785156 4.746094 -6.917969 4.359375 -6.917969 C 4.28125 -6.917969 4.21875 -6.914062 4.171875 -6.902344 C 4.15625 -6.898438 4.144531 -6.894531 4.132812 -6.890625 C 4.148438 -6.902344 4.164062 -6.917969 4.171875 -6.9375 C 4.175781 -6.945312 4.175781 -6.949219 4.179688 -6.957031 C 4.175781 -6.953125 4.175781 -6.949219 4.175781 -6.941406 C 4.175781 -6.964844 4.171875 -6.984375 4.164062 -7.003906 C 4.160156 -7.011719 4.160156 -7.015625 4.15625 -7.015625 C 4.15625 -7.015625 4.160156 -7.015625 4.164062 -7.011719 C 4.203125 -6.96875 4.277344 -6.921875 4.390625 -6.871094 L 4.40625 -6.863281 C 4.476562 -6.828125 4.578125 -6.78125 4.714844 -6.714844 C 4.855469 -6.648438 5.019531 -6.570312 5.203125 -6.480469 C 5.40625 -6.382812 5.621094 -6.261719 5.847656 -6.117188 C 6.082031 -5.964844 6.332031 -5.765625 6.597656 -5.519531 C 7.203125 -4.949219 7.507812 -4.203125 7.507812 -3.289062 C 7.507812 -2.160156 7.1875 -1.230469 6.554688 -0.496094 C 5.902344 0.257812 4.921875 0.644531 3.617188 0.664062 C 3.019531 0.664062 2.472656 0.613281 1.984375 0.515625 C 1.449219 0.402344 0.980469 0.1875 0.582031 -0.136719 C 0.113281 -0.511719 -0.117188 -0.976562 -0.117188 -1.523438 C -0.117188 -1.96875 -0.0390625 -2.410156 0.125 -2.847656 C 0.296875 -3.320312 0.503906 -3.648438 0.746094 -3.832031 L 1.070312 -4.078125 Z M 0.738281 -3.003906 L 1.0625 -3.414062 L 1.382812 -2.996094 C 1.355469 -2.976562 1.324219 -2.933594 1.28125 -2.867188 C 1.226562 -2.769531 1.167969 -2.640625 1.109375 -2.484375 C 0.988281 -2.164062 0.929688 -1.84375 0.929688 -1.523438 C 0.929688 -1.308594 1.035156 -1.121094 1.238281 -0.953125 C 1.507812 -0.738281 1.828125 -0.589844 2.199219 -0.515625 C 2.617188 -0.429688 3.082031 -0.386719 3.601562 -0.382812 C 4.59375 -0.402344 5.3125 -0.667969 5.761719 -1.183594 C 6.226562 -1.71875 6.457031 -2.421875 6.457031 -3.289062 C 6.457031 -3.902344 6.265625 -4.390625 5.886719 -4.75 C 5.664062 -4.953125 5.460938 -5.113281 5.277344 -5.234375 C 5.085938 -5.355469 4.90625 -5.457031 4.746094 -5.539062 C 4.566406 -5.625 4.40625 -5.703125 4.269531 -5.765625 C 4.125 -5.832031 4.015625 -5.886719 3.933594 -5.925781 L 4.171875 -6.394531 L 3.949219 -5.917969 C 3.402344 -6.171875 3.128906 -6.511719 3.128906 -6.941406 C 3.128906 -7.101562 3.160156 -7.25 3.222656 -7.382812 C 3.289062 -7.53125 3.390625 -7.652344 3.523438 -7.746094 C 3.734375 -7.894531 4.011719 -7.96875 4.359375 -7.96875 C 4.914062 -7.96875 5.527344 -7.796875 6.203125 -7.449219 L 5.960938 -6.984375 L 5.671875 -7.417969 C 5.644531 -7.402344 5.621094 -7.382812 5.601562 -7.363281 C 5.621094 -7.386719 5.640625 -7.425781 5.667969 -7.476562 C 5.730469 -7.601562 5.8125 -7.78125 5.910156 -8.015625 C 6.089844 -8.449219 6.179688 -8.796875 6.179688 -9.054688 L 6.179688 -9.136719 L 6.703125 -9.136719 L 6.179688 -9.097656 C 6.183594 -9.054688 6.195312 -9.019531 6.214844 -8.992188 L 6.21875 -8.988281 C 6.210938 -8.996094 6.199219 -9.003906 6.183594 -9.011719 C 6.085938 -9.078125 5.921875 -9.136719 5.691406 -9.195312 C 5.164062 -9.328125 4.589844 -9.394531 3.960938 -9.394531 C 3.109375 -9.394531 2.425781 -9.160156 1.917969 -8.6875 C 1.417969 -8.230469 1.167969 -7.664062 1.167969 -6.996094 C 1.167969 -6.285156 1.324219 -5.710938 1.632812 -5.269531 L 1.636719 -5.265625 L 1.640625 -5.257812 C 1.738281 -5.113281 1.882812 -4.96875 2.082031 -4.824219 C 2.308594 -4.65625 2.484375 -4.539062 2.609375 -4.472656 C 2.753906 -4.398438 2.96875 -4.292969 3.257812 -4.15625 C 3.609375 -3.992188 3.863281 -3.835938 4.015625 -3.6875 C 4.234375 -3.476562 4.34375 -3.226562 4.34375 -2.9375 C 4.34375 -2.613281 4.226562 -2.359375 3.992188 -2.179688 C 3.800781 -2.027344 3.542969 -1.953125 3.226562 -1.953125 C 2.738281 -1.953125 2.238281 -2.09375 1.722656 -2.382812 C 1.265625 -2.640625 0.9375 -2.84375 0.738281 -3.003906 Z M 0.738281 -3.003906 "/></g></g><g style="fill:#ffffff;fill-opacity:1;"><g transform="translate(104.572277, 122.768769)"><path style="stroke:none" d="M 8.835938 -0.238281 C 8.835938 0.136719 8.574219 0.371094 8.046875 0.457031 C 7.78125 0.503906 7.398438 0.523438 6.898438 0.523438 C 6.398438 0.523438 6.015625 0.503906 5.75 0.457031 C 5.222656 0.371094 4.960938 0.136719 4.960938 -0.238281 L 4.960938 -3.457031 L 5.484375 -3.457031 L 5.484375 -2.929688 L 3.527344 -2.929688 L 3.527344 -3.457031 L 4.050781 -3.457031 L 4.050781 -0.238281 C 4.050781 0.136719 3.789062 0.371094 3.261719 0.457031 C 2.996094 0.503906 2.613281 0.523438 2.113281 0.523438 C 1.613281 0.523438 1.230469 0.503906 0.964844 0.457031 C 0.4375 0.371094 0.175781 0.136719 0.175781 -0.238281 L 0.175781 -9.515625 C 0.175781 -9.648438 0.214844 -9.769531 0.289062 -9.882812 C 0.34375 -9.964844 0.417969 -10.03125 0.511719 -10.089844 C 0.621094 -10.160156 0.765625 -10.210938 0.945312 -10.25 C 1.21875 -10.304688 1.605469 -10.335938 2.113281 -10.335938 C 2.621094 -10.335938 3.007812 -10.304688 3.28125 -10.25 C 3.457031 -10.210938 3.605469 -10.160156 3.714844 -10.089844 C 3.808594 -10.03125 3.878906 -9.964844 3.9375 -9.882812 C 4.011719 -9.769531 4.050781 -9.648438 4.050781 -9.515625 L 4.050781 -6.226562 L 3.527344 -6.226562 L 3.527344 -6.75 L 5.484375 -6.75 L 5.484375 -6.226562 L 4.960938 -6.226562 L 4.960938 -9.488281 C 4.960938 -9.667969 5.027344 -9.824219 5.164062 -9.957031 C 5.242188 -10.03125 5.34375 -10.09375 5.464844 -10.140625 C 5.625 -10.207031 5.84375 -10.253906 6.121094 -10.289062 L 6.144531 -10.289062 C 6.402344 -10.308594 6.652344 -10.320312 6.898438 -10.320312 L 6.910156 -10.320312 L 7.652344 -10.289062 L 7.675781 -10.289062 C 7.953125 -10.253906 8.171875 -10.207031 8.332031 -10.140625 C 8.453125 -10.09375 8.554688 -10.03125 8.632812 -9.957031 C 8.769531 -9.824219 8.835938 -9.667969 8.835938 -9.488281 Z M 7.789062 -0.238281 L 7.789062 -9.488281 C 7.789062 -9.371094 7.828125 -9.273438 7.90625 -9.199219 C 7.921875 -9.183594 7.933594 -9.175781 7.949219 -9.164062 C 7.949219 -9.164062 7.945312 -9.167969 7.941406 -9.167969 C 7.867188 -9.199219 7.738281 -9.222656 7.550781 -9.246094 L 7.613281 -9.765625 L 7.589844 -9.242188 L 6.878906 -9.269531 L 6.898438 -9.796875 L 6.898438 -9.269531 C 6.679688 -9.269531 6.453125 -9.261719 6.226562 -9.242188 L 6.183594 -9.765625 L 6.246094 -9.246094 C 6.058594 -9.222656 5.929688 -9.199219 5.855469 -9.167969 C 5.851562 -9.167969 5.847656 -9.164062 5.847656 -9.164062 C 5.863281 -9.175781 5.878906 -9.183594 5.890625 -9.199219 C 5.972656 -9.273438 6.011719 -9.371094 6.011719 -9.488281 L 6.011719 -5.703125 L 3 -5.703125 L 3 -9.515625 C 3 -9.429688 3.023438 -9.355469 3.070312 -9.285156 C 3.097656 -9.25 3.128906 -9.21875 3.160156 -9.199219 C 3.164062 -9.195312 3.167969 -9.195312 3.171875 -9.191406 C 3.167969 -9.195312 3.160156 -9.195312 3.15625 -9.199219 C 3.132812 -9.207031 3.101562 -9.214844 3.066406 -9.222656 C 2.867188 -9.261719 2.546875 -9.285156 2.113281 -9.285156 C 1.679688 -9.285156 1.359375 -9.261719 1.160156 -9.222656 C 1.121094 -9.214844 1.09375 -9.207031 1.070312 -9.199219 C 1.0625 -9.195312 1.058594 -9.195312 1.054688 -9.191406 C 1.058594 -9.195312 1.0625 -9.195312 1.066406 -9.199219 C 1.097656 -9.21875 1.128906 -9.25 1.152344 -9.285156 C 1.199219 -9.355469 1.222656 -9.429688 1.222656 -9.515625 L 1.222656 -0.238281 C 1.222656 -0.347656 1.191406 -0.441406 1.121094 -0.523438 C 1.089844 -0.558594 1.058594 -0.585938 1.023438 -0.601562 C 1.035156 -0.597656 1.074219 -0.589844 1.140625 -0.578125 C 1.347656 -0.542969 1.671875 -0.523438 2.113281 -0.523438 C 2.554688 -0.523438 2.878906 -0.542969 3.085938 -0.578125 C 3.152344 -0.589844 3.191406 -0.597656 3.203125 -0.601562 C 3.167969 -0.585938 3.136719 -0.558594 3.105469 -0.523438 C 3.035156 -0.441406 3 -0.347656 3 -0.238281 L 3 -3.980469 L 6.011719 -3.980469 L 6.011719 -0.238281 C 6.011719 -0.347656 5.976562 -0.441406 5.90625 -0.523438 C 5.875 -0.558594 5.84375 -0.585938 5.808594 -0.601562 C 5.820312 -0.597656 5.859375 -0.589844 5.925781 -0.578125 C 6.132812 -0.542969 6.457031 -0.523438 6.898438 -0.523438 C 7.339844 -0.523438 7.664062 -0.542969 7.871094 -0.578125 C 7.9375 -0.589844 7.976562 -0.597656 7.988281 -0.601562 C 7.953125 -0.585938 7.921875 -0.558594 7.890625 -0.523438 C 7.820312 -0.441406 7.789062 -0.347656 7.789062 -0.238281 Z M 7.789062 -0.238281 "/></g></g><g style="fill:#ffffff;fill-opacity:1;"><g transform="translate(113.57805, 122.768769)"><path style="stroke:none" d="M 4.863281 0.664062 C 3.402344 0.664062 2.207031 0.183594 1.28125 -0.785156 C 0.355469 -1.742188 -0.105469 -3.117188 -0.105469 -4.90625 C -0.105469 -6.695312 0.363281 -8.066406 1.296875 -9.015625 C 2.234375 -9.96875 3.4375 -10.445312 4.90625 -10.445312 C 6.371094 -10.445312 7.5625 -9.976562 8.476562 -9.035156 C 9.390625 -8.097656 9.84375 -6.710938 9.84375 -4.875 C 9.84375 -3.039062 9.378906 -1.65625 8.445312 -0.726562 C 7.511719 0.199219 6.316406 0.664062 4.863281 0.664062 Z M 4.863281 -0.386719 C 6.027344 -0.386719 6.976562 -0.746094 7.703125 -1.46875 C 8.429688 -2.195312 8.792969 -3.328125 8.792969 -4.875 C 8.792969 -6.429688 8.4375 -7.570312 7.726562 -8.304688 C 7.015625 -9.03125 6.078125 -9.394531 4.90625 -9.394531 C 3.730469 -9.394531 2.777344 -9.023438 2.046875 -8.28125 C 1.3125 -7.53125 0.945312 -6.40625 0.945312 -4.90625 C 0.945312 -3.398438 1.308594 -2.269531 2.035156 -1.511719 C 2.757812 -0.761719 3.699219 -0.386719 4.863281 -0.386719 Z M 4.871094 -6.710938 C 4.597656 -6.710938 4.363281 -6.574219 4.164062 -6.308594 C 3.929688 -5.988281 3.8125 -5.515625 3.8125 -4.890625 C 3.8125 -4.261719 3.925781 -3.796875 4.144531 -3.492188 C 4.332031 -3.238281 4.570312 -3.113281 4.863281 -3.113281 C 5.15625 -3.113281 5.398438 -3.242188 5.585938 -3.5 C 5.8125 -3.808594 5.925781 -4.28125 5.925781 -4.910156 C 5.925781 -5.539062 5.808594 -6.007812 5.578125 -6.316406 C 5.378906 -6.578125 5.144531 -6.710938 4.871094 -6.710938 Z M 4.871094 -7.757812 C 5.492188 -7.757812 6.007812 -7.488281 6.414062 -6.949219 C 6.789062 -6.453125 6.976562 -5.773438 6.976562 -4.910156 C 6.976562 -4.050781 6.792969 -3.375 6.433594 -2.878906 C 6.035156 -2.335938 5.511719 -2.0625 4.863281 -2.0625 C 4.214844 -2.0625 3.691406 -2.335938 3.296875 -2.875 C 2.941406 -3.363281 2.761719 -4.035156 2.761719 -4.890625 C 2.761719 -5.746094 2.949219 -6.425781 3.320312 -6.929688 C 3.730469 -7.484375 4.246094 -7.757812 4.871094 -7.757812 Z M 4.871094 -7.757812 "/></g></g><g style="fill:#ffffff;fill-opacity:1;"><g transform="translate(123.310989, 122.768769)"><path style="stroke:none" d="M 1.917969 0.554688 C 1.453125 0.554688 1.097656 0.523438 0.847656 0.46875 C 0.679688 0.433594 0.542969 0.378906 0.433594 0.308594 C 0.347656 0.25 0.277344 0.179688 0.222656 0.101562 C 0.152344 -0.0078125 0.117188 -0.125 0.117188 -0.25 L 0.117188 -9.320312 C 0.117188 -9.613281 0.199219 -9.851562 0.363281 -10.03125 C 0.539062 -10.222656 0.777344 -10.320312 1.078125 -10.320312 L 3.539062 -10.320312 C 5.058594 -10.320312 6.171875 -9.988281 6.886719 -9.324219 C 7.609375 -8.652344 7.96875 -7.699219 7.96875 -6.464844 C 7.96875 -5.449219 7.644531 -4.523438 6.992188 -3.679688 C 6.644531 -3.230469 6.144531 -2.878906 5.5 -2.621094 C 4.875 -2.371094 4.15625 -2.246094 3.34375 -2.246094 L 3.34375 -2.769531 L 3.871094 -2.769531 L 3.871094 -0.265625 C 3.871094 -0.101562 3.8125 0.0429688 3.695312 0.167969 C 3.625 0.246094 3.535156 0.308594 3.425781 0.355469 C 3.289062 0.414062 3.109375 0.457031 2.882812 0.484375 C 2.511719 0.53125 2.191406 0.554688 1.917969 0.554688 Z M 1.917969 -0.496094 C 2.148438 -0.496094 2.429688 -0.515625 2.757812 -0.554688 C 2.878906 -0.570312 2.960938 -0.585938 3 -0.605469 C 2.980469 -0.59375 2.953125 -0.574219 2.925781 -0.546875 C 2.855469 -0.46875 2.820312 -0.375 2.820312 -0.265625 L 2.820312 -3.296875 L 3.34375 -3.296875 C 4.023438 -3.296875 4.613281 -3.394531 5.109375 -3.59375 C 5.578125 -3.78125 5.929688 -4.027344 6.160156 -4.324219 C 6.667969 -4.976562 6.917969 -5.6875 6.917969 -6.464844 C 6.917969 -7.394531 6.667969 -8.09375 6.171875 -8.558594 C 5.660156 -9.03125 4.785156 -9.269531 3.539062 -9.269531 L 1.078125 -9.269531 C 1.070312 -9.269531 1.0625 -9.269531 1.058594 -9.269531 C 1.058594 -9.269531 1.0625 -9.269531 1.066406 -9.273438 C 1.09375 -9.28125 1.117188 -9.300781 1.140625 -9.324219 C 1.15625 -9.339844 1.167969 -9.359375 1.171875 -9.375 C 1.171875 -9.367188 1.167969 -9.347656 1.167969 -9.320312 L 1.167969 -0.25 C 1.167969 -0.332031 1.148438 -0.40625 1.105469 -0.472656 C 1.078125 -0.511719 1.046875 -0.542969 1.011719 -0.566406 C 1.007812 -0.570312 1 -0.574219 0.996094 -0.578125 C 0.996094 -0.578125 1 -0.574219 1.003906 -0.574219 C 1.019531 -0.566406 1.042969 -0.5625 1.074219 -0.554688 C 1.25 -0.515625 1.53125 -0.496094 1.917969 -0.496094 Z M 3.871094 -7.359375 L 3.871094 -5.148438 L 3.34375 -5.148438 L 3.34375 -5.675781 L 3.527344 -5.675781 C 3.714844 -5.675781 3.875 -5.730469 3.996094 -5.84375 C 4.109375 -5.945312 4.164062 -6.105469 4.164062 -6.324219 C 4.164062 -6.460938 4.152344 -6.574219 4.125 -6.660156 C 4.113281 -6.707031 4.097656 -6.742188 4.082031 -6.757812 C 4.066406 -6.769531 4.039062 -6.785156 3.992188 -6.796875 C 3.902344 -6.824219 3.785156 -6.835938 3.636719 -6.835938 L 3.34375 -6.835938 L 3.34375 -7.359375 Z M 2.820312 -7.886719 L 3.636719 -7.886719 C 4.179688 -7.886719 4.578125 -7.753906 4.832031 -7.488281 C 5.085938 -7.226562 5.210938 -6.839844 5.210938 -6.324219 C 5.210938 -5.796875 5.042969 -5.378906 4.707031 -5.070312 C 4.382812 -4.773438 3.988281 -4.625 3.527344 -4.625 L 2.820312 -4.625 Z M 2.820312 -7.886719 "/></g></g><g style="fill:#ffffff;fill-opacity:1;"><g transform="translate(131.281928, 122.768769)"><path style="stroke:none" d="M 7.277344 0.554688 C 6.820312 0.554688 6.457031 0.511719 6.1875 0.433594 C 5.777344 0.3125 5.53125 0.0859375 5.453125 -0.238281 L 4.992188 -2.039062 L 5.5 -2.167969 L 5.5 -1.644531 L 3.273438 -1.644531 L 3.273438 -2.167969 L 3.785156 -2.050781 L 3.378906 -0.3125 L 2.867188 -0.433594 L 3.382812 -0.335938 C 3.347656 -0.140625 3.25 0.0195312 3.09375 0.152344 C 2.980469 0.253906 2.832031 0.332031 2.652344 0.390625 C 2.375 0.480469 2 0.523438 1.523438 0.523438 C 1.035156 0.523438 0.664062 0.496094 0.410156 0.433594 C 0.28125 0.402344 0.183594 0.375 0.109375 0.347656 C -0.171875 0.242188 -0.316406 0.0625 -0.316406 -0.195312 L -0.316406 -0.261719 L 2.179688 -9.800781 L 2.6875 -9.667969 L 2.160156 -9.667969 C 2.160156 -9.980469 2.347656 -10.171875 2.714844 -10.234375 C 2.816406 -10.253906 2.957031 -10.265625 3.136719 -10.277344 C 3.464844 -10.296875 3.953125 -10.304688 4.605469 -10.304688 C 5.253906 -10.304688 5.742188 -10.296875 6.070312 -10.277344 C 6.253906 -10.265625 6.390625 -10.253906 6.492188 -10.234375 C 6.859375 -10.171875 7.046875 -9.980469 7.046875 -9.667969 L 6.519531 -9.667969 L 7.03125 -9.800781 L 9.464844 -0.246094 L 9.464844 -0.183594 C 9.464844 0.125 9.277344 0.324219 8.902344 0.414062 C 8.769531 0.449219 8.582031 0.472656 8.34375 0.496094 C 7.898438 0.535156 7.542969 0.554688 7.277344 0.554688 Z M 7.277344 -0.496094 C 7.511719 -0.496094 7.839844 -0.515625 8.253906 -0.550781 C 8.441406 -0.566406 8.578125 -0.585938 8.660156 -0.605469 C 8.667969 -0.609375 8.675781 -0.609375 8.683594 -0.609375 C 8.675781 -0.609375 8.664062 -0.605469 8.652344 -0.597656 C 8.609375 -0.574219 8.570312 -0.542969 8.535156 -0.503906 C 8.457031 -0.410156 8.417969 -0.304688 8.417969 -0.183594 L 8.941406 -0.183594 L 8.433594 -0.0507812 L 5.996094 -9.601562 L 5.996094 -9.667969 C 5.996094 -9.515625 6.054688 -9.386719 6.167969 -9.289062 C 6.207031 -9.253906 6.25 -9.226562 6.292969 -9.210938 C 6.304688 -9.203125 6.316406 -9.199219 6.324219 -9.199219 C 6.324219 -9.199219 6.316406 -9.199219 6.308594 -9.203125 C 6.25 -9.210938 6.152344 -9.222656 6.011719 -9.230469 C 5.703125 -9.246094 5.234375 -9.257812 4.605469 -9.257812 C 3.976562 -9.257812 3.507812 -9.246094 3.195312 -9.230469 C 3.058594 -9.222656 2.957031 -9.210938 2.898438 -9.203125 C 2.890625 -9.199219 2.886719 -9.199219 2.882812 -9.199219 C 2.890625 -9.199219 2.902344 -9.203125 2.914062 -9.210938 C 2.960938 -9.226562 3 -9.253906 3.039062 -9.289062 C 3.152344 -9.386719 3.210938 -9.515625 3.210938 -9.667969 L 3.210938 -9.601562 L 0.71875 -0.0625 L 0.210938 -0.195312 L 0.734375 -0.195312 C 0.734375 -0.324219 0.695312 -0.433594 0.609375 -0.527344 C 0.582031 -0.5625 0.546875 -0.59375 0.511719 -0.617188 C 0.492188 -0.628906 0.480469 -0.632812 0.472656 -0.636719 C 0.507812 -0.625 0.566406 -0.609375 0.652344 -0.585938 C 0.828125 -0.546875 1.117188 -0.523438 1.523438 -0.523438 C 1.890625 -0.523438 2.15625 -0.550781 2.328125 -0.609375 C 2.375 -0.621094 2.402344 -0.632812 2.410156 -0.640625 C 2.382812 -0.617188 2.363281 -0.582031 2.351562 -0.535156 L 2.355469 -0.542969 L 2.859375 -2.695312 L 5.90625 -2.695312 L 6.46875 -0.492188 C 6.457031 -0.542969 6.433594 -0.582031 6.402344 -0.605469 C 6.414062 -0.597656 6.441406 -0.585938 6.488281 -0.574219 C 6.660156 -0.523438 6.921875 -0.496094 7.277344 -0.496094 Z M 3.625 -4.472656 L 5.09375 -4.472656 L 5.09375 -3.945312 L 4.582031 -3.835938 L 3.949219 -6.730469 L 4.464844 -6.84375 L 4.464844 -6.316406 L 4.378906 -6.316406 L 4.378906 -6.84375 L 4.886719 -6.710938 L 4.132812 -3.8125 L 3.625 -3.945312 Z M 2.945312 -3.421875 L 3.972656 -7.367188 L 4.886719 -7.367188 L 5.746094 -3.421875 Z M 2.945312 -3.421875 "/></g></g><g style="fill:#ffffff;fill-opacity:1;"><g transform="translate(140.441521, 122.768769)"><path style="stroke:none" d="M 4.023438 -0.195312 C 4.023438 0.171875 3.765625 0.398438 3.253906 0.480469 C 3.003906 0.519531 2.648438 0.539062 2.183594 0.539062 L 2.167969 0.539062 L 1.363281 0.496094 L 1.359375 0.496094 C 1.089844 0.472656 0.882812 0.441406 0.734375 0.398438 C 0.621094 0.367188 0.523438 0.328125 0.449219 0.273438 C 0.378906 0.226562 0.320312 0.171875 0.277344 0.105469 C 0.207031 0.00390625 0.175781 -0.105469 0.175781 -0.222656 L 0.175781 -9.613281 C 0.175781 -9.988281 0.4375 -10.21875 0.960938 -10.308594 C 1.222656 -10.355469 1.601562 -10.375 2.097656 -10.375 C 2.59375 -10.375 2.972656 -10.355469 3.238281 -10.308594 C 3.761719 -10.21875 4.023438 -9.988281 4.023438 -9.613281 L 4.023438 -6.03125 L 3.5 -6.03125 L 3.023438 -6.257812 L 4.730469 -9.839844 C 4.847656 -10.066406 5.082031 -10.214844 5.445312 -10.277344 C 5.660156 -10.316406 5.953125 -10.335938 6.324219 -10.335938 C 6.972656 -10.335938 7.476562 -10.304688 7.832031 -10.246094 C 8.039062 -10.210938 8.207031 -10.164062 8.339844 -10.105469 C 8.574219 -10 8.722656 -9.847656 8.785156 -9.640625 L 8.808594 -9.566406 L 8.808594 -9.488281 C 8.808594 -9.386719 8.785156 -9.289062 8.738281 -9.195312 L 8.734375 -9.1875 L 6.292969 -4.785156 L 5.835938 -5.039062 L 6.261719 -5.34375 L 9.1875 -1.304688 L 9.1875 -1.132812 C 9.1875 -0.992188 9.136719 -0.867188 9.035156 -0.757812 C 9.011719 -0.730469 8.980469 -0.699219 8.945312 -0.667969 C 8.894531 -0.621094 8.816406 -0.558594 8.722656 -0.484375 L 8.394531 -0.894531 L 8.742188 -0.5 C 8.261719 -0.0859375 7.707031 0.242188 7.066406 0.476562 C 6.832031 0.566406 6.59375 0.609375 6.351562 0.609375 L 6.332031 0.609375 L 5.929688 0.574219 L 5.890625 0.566406 C 5.441406 0.453125 5.097656 0.175781 4.855469 -0.265625 L 3.257812 -3.324219 L 3.722656 -3.566406 L 3.722656 -3.042969 L 3.5 -3.042969 L 3.5 -3.566406 L 4.023438 -3.566406 Z M 2.972656 -0.195312 L 2.972656 -4.09375 L 4.039062 -4.09375 L 5.777344 -0.769531 C 5.871094 -0.597656 5.996094 -0.492188 6.144531 -0.453125 L 6.015625 0.0546875 L 6.0625 -0.46875 L 6.398438 -0.4375 L 6.351562 0.0820312 L 6.351562 -0.441406 C 6.46875 -0.441406 6.585938 -0.460938 6.703125 -0.507812 C 7.222656 -0.699219 7.671875 -0.960938 8.050781 -1.292969 L 8.0625 -1.300781 L 8.070312 -1.308594 C 8.152344 -1.371094 8.210938 -1.417969 8.246094 -1.449219 C 8.25 -1.457031 8.257812 -1.460938 8.261719 -1.464844 C 8.261719 -1.464844 8.257812 -1.460938 8.257812 -1.460938 C 8.175781 -1.371094 8.136719 -1.261719 8.136719 -1.132812 L 8.660156 -1.132812 L 8.238281 -0.824219 L 5.214844 -5 L 7.8125 -9.6875 L 8.269531 -9.429688 L 7.800781 -9.667969 C 7.773438 -9.609375 7.757812 -9.550781 7.757812 -9.488281 L 8.285156 -9.488281 L 7.78125 -9.335938 C 7.800781 -9.265625 7.835938 -9.210938 7.882812 -9.167969 C 7.894531 -9.160156 7.902344 -9.152344 7.910156 -9.148438 C 7.863281 -9.171875 7.777344 -9.191406 7.660156 -9.210938 C 7.363281 -9.261719 6.917969 -9.285156 6.324219 -9.285156 C 6.015625 -9.285156 5.78125 -9.269531 5.625 -9.242188 C 5.574219 -9.234375 5.542969 -9.226562 5.527344 -9.21875 C 5.585938 -9.246094 5.636719 -9.300781 5.679688 -9.386719 L 3.972656 -5.804688 L 2.972656 -6.03125 L 2.972656 -9.613281 C 2.972656 -9.503906 3.007812 -9.410156 3.074219 -9.332031 C 3.105469 -9.292969 3.136719 -9.265625 3.171875 -9.25 C 3.160156 -9.253906 3.125 -9.261719 3.058594 -9.273438 C 2.855469 -9.308594 2.535156 -9.328125 2.097656 -9.328125 C 1.660156 -9.328125 1.339844 -9.308594 1.136719 -9.273438 C 1.074219 -9.261719 1.035156 -9.253906 1.027344 -9.25 C 1.058594 -9.265625 1.09375 -9.292969 1.125 -9.332031 C 1.191406 -9.410156 1.222656 -9.503906 1.222656 -9.613281 L 1.222656 -0.222656 C 1.222656 -0.320312 1.199219 -0.40625 1.144531 -0.484375 C 1.113281 -0.527344 1.078125 -0.566406 1.039062 -0.59375 C 1.023438 -0.601562 1.011719 -0.609375 1 -0.617188 C 1 -0.613281 1.007812 -0.613281 1.015625 -0.609375 C 1.101562 -0.585938 1.242188 -0.566406 1.441406 -0.550781 L 1.398438 -0.0273438 L 1.425781 -0.550781 L 2.210938 -0.511719 L 2.183594 0.015625 L 2.183594 -0.511719 C 2.59375 -0.511719 2.894531 -0.527344 3.085938 -0.558594 C 3.144531 -0.566406 3.179688 -0.574219 3.191406 -0.578125 C 3.152344 -0.558594 3.121094 -0.535156 3.085938 -0.496094 C 3.011719 -0.414062 2.972656 -0.3125 2.972656 -0.195312 Z M 2.972656 -0.195312 "/></g></g><g style="fill:#3871c1;fill-opacity:1;"><g transform="translate(97.14672, 122.768769)"><path style="stroke:none" d="M 1.0625 -3.421875 C 1.238281 -3.273438 1.539062 -3.082031 1.96875 -2.84375 C 2.40625 -2.601562 2.820312 -2.484375 3.21875 -2.484375 C 3.625 -2.484375 3.828125 -2.632812 3.828125 -2.9375 C 3.828125 -3.082031 3.769531 -3.207031 3.65625 -3.3125 C 3.539062 -3.414062 3.332031 -3.535156 3.03125 -3.671875 C 2.738281 -3.816406 2.515625 -3.925781 2.359375 -4 C 2.210938 -4.082031 2.015625 -4.210938 1.765625 -4.390625 C 1.523438 -4.578125 1.335938 -4.769531 1.203125 -4.96875 C 0.828125 -5.5 0.640625 -6.175781 0.640625 -7 C 0.640625 -7.820312 0.945312 -8.515625 1.5625 -9.078125 C 2.175781 -9.640625 2.976562 -9.921875 3.96875 -9.921875 C 4.632812 -9.921875 5.25 -9.847656 5.8125 -9.703125 C 6.382812 -9.554688 6.679688 -9.367188 6.703125 -9.140625 C 6.703125 -9.109375 6.703125 -9.082031 6.703125 -9.0625 C 6.703125 -8.726562 6.597656 -8.3125 6.390625 -7.8125 C 6.191406 -7.3125 6.050781 -7.035156 5.96875 -6.984375 C 5.363281 -7.296875 4.828125 -7.453125 4.359375 -7.453125 C 3.890625 -7.453125 3.65625 -7.28125 3.65625 -6.9375 C 3.65625 -6.738281 3.828125 -6.554688 4.171875 -6.390625 C 4.242188 -6.359375 4.347656 -6.304688 4.484375 -6.234375 C 4.628906 -6.171875 4.789062 -6.09375 4.96875 -6 C 5.15625 -5.914062 5.351562 -5.804688 5.5625 -5.671875 C 5.769531 -5.535156 6 -5.359375 6.25 -5.140625 C 6.738281 -4.671875 6.984375 -4.054688 6.984375 -3.296875 C 6.984375 -2.296875 6.707031 -1.476562 6.15625 -0.84375 C 5.601562 -0.207031 4.753906 0.117188 3.609375 0.140625 C 3.046875 0.140625 2.535156 0.09375 2.078125 0 C 1.628906 -0.09375 1.238281 -0.273438 0.90625 -0.546875 C 0.570312 -0.816406 0.40625 -1.140625 0.40625 -1.515625 C 0.40625 -1.898438 0.472656 -2.28125 0.609375 -2.65625 C 0.753906 -3.039062 0.90625 -3.296875 1.0625 -3.421875 Z M 1.0625 -3.421875 "/></g></g><g style="fill:#3871c1;fill-opacity:1;"><g transform="translate(104.572277, 122.768769)"><path style="stroke:none" d="M 8.3125 -0.234375 C 8.3125 -0.078125 7.835938 0 6.890625 0 C 5.953125 0 5.484375 -0.078125 5.484375 -0.234375 L 5.484375 -3.453125 L 3.53125 -3.453125 L 3.53125 -0.234375 C 3.53125 -0.078125 3.054688 0 2.109375 0 C 1.171875 0 0.703125 -0.078125 0.703125 -0.234375 L 0.703125 -9.515625 C 0.703125 -9.710938 1.171875 -9.8125 2.109375 -9.8125 C 3.054688 -9.8125 3.53125 -9.710938 3.53125 -9.515625 L 3.53125 -6.234375 L 5.484375 -6.234375 L 5.484375 -9.484375 C 5.484375 -9.617188 5.71875 -9.710938 6.1875 -9.765625 C 6.425781 -9.785156 6.664062 -9.796875 6.90625 -9.796875 L 7.609375 -9.765625 C 8.078125 -9.710938 8.3125 -9.617188 8.3125 -9.484375 Z M 8.3125 -0.234375 "/></g></g><g style="fill:#3871c1;fill-opacity:1;"><g transform="translate(113.57805, 122.768769)"><path style="stroke:none" d="M 4.859375 0.140625 C 3.546875 0.140625 2.476562 -0.285156 1.65625 -1.140625 C 0.832031 -2.003906 0.421875 -3.257812 0.421875 -4.90625 C 0.421875 -6.550781 0.835938 -7.796875 1.671875 -8.640625 C 2.503906 -9.492188 3.582031 -9.921875 4.90625 -9.921875 C 6.226562 -9.921875 7.296875 -9.503906 8.109375 -8.671875 C 8.921875 -7.835938 9.328125 -6.570312 9.328125 -4.875 C 9.328125 -3.1875 8.910156 -1.925781 8.078125 -1.09375 C 7.242188 -0.269531 6.171875 0.140625 4.859375 0.140625 Z M 4.875 -7.234375 C 4.425781 -7.234375 4.050781 -7.023438 3.75 -6.609375 C 3.445312 -6.203125 3.296875 -5.628906 3.296875 -4.890625 C 3.296875 -4.148438 3.4375 -3.582031 3.71875 -3.1875 C 4.007812 -2.789062 4.390625 -2.59375 4.859375 -2.59375 C 5.335938 -2.59375 5.722656 -2.789062 6.015625 -3.1875 C 6.304688 -3.59375 6.453125 -4.164062 6.453125 -4.90625 C 6.453125 -5.65625 6.300781 -6.226562 6 -6.625 C 5.695312 -7.03125 5.320312 -7.234375 4.875 -7.234375 Z M 4.875 -7.234375 "/></g></g><g style="fill:#3871c1;fill-opacity:1;"><g transform="translate(123.310989, 122.768769)"><path style="stroke:none" d="M 1.921875 0.03125 C 1.066406 0.03125 0.640625 -0.0625 0.640625 -0.25 L 0.640625 -9.328125 C 0.640625 -9.640625 0.785156 -9.796875 1.078125 -9.796875 L 3.546875 -9.796875 C 4.921875 -9.796875 5.914062 -9.507812 6.53125 -8.9375 C 7.144531 -8.375 7.453125 -7.550781 7.453125 -6.46875 C 7.453125 -5.570312 7.160156 -4.75 6.578125 -4 C 6.285156 -3.625 5.859375 -3.320312 5.296875 -3.09375 C 4.742188 -2.875 4.09375 -2.765625 3.34375 -2.765625 L 3.34375 -0.265625 C 3.34375 -0.148438 3.164062 -0.0703125 2.8125 -0.03125 C 2.46875 0.0078125 2.171875 0.03125 1.921875 0.03125 Z M 3.34375 -7.359375 L 3.34375 -5.15625 L 3.53125 -5.15625 C 3.851562 -5.15625 4.125 -5.253906 4.34375 -5.453125 C 4.570312 -5.660156 4.6875 -5.953125 4.6875 -6.328125 C 4.6875 -6.703125 4.609375 -6.96875 4.453125 -7.125 C 4.304688 -7.28125 4.035156 -7.359375 3.640625 -7.359375 Z M 3.34375 -7.359375 "/></g></g><g style="fill:#3871c1;fill-opacity:1;"><g transform="translate(131.281928, 122.768769)"><path style="stroke:none" d="M 7.28125 0.03125 C 6.46875 0.03125 6.03125 -0.0976562 5.96875 -0.359375 L 5.5 -2.171875 L 3.28125 -2.171875 L 2.875 -0.4375 C 2.8125 -0.144531 2.363281 0 1.53125 0 C 1.082031 0 0.75 -0.0234375 0.53125 -0.078125 C 0.3125 -0.128906 0.203125 -0.171875 0.203125 -0.203125 L 2.6875 -9.671875 C 2.6875 -9.742188 3.328125 -9.78125 4.609375 -9.78125 C 5.890625 -9.78125 6.53125 -9.742188 6.53125 -9.671875 L 8.953125 -0.1875 C 8.953125 -0.113281 8.734375 -0.0546875 8.296875 -0.015625 C 7.867188 0.015625 7.53125 0.03125 7.28125 0.03125 Z M 3.625 -3.953125 L 5.09375 -3.953125 L 4.46875 -6.84375 L 4.375 -6.84375 Z M 3.625 -3.953125 "/></g></g><g style="fill:#3871c1;fill-opacity:1;"><g transform="translate(140.441521, 122.768769)"><path style="stroke:none" d="M 3.5 -0.203125 C 3.5 -0.0546875 3.0625 0.015625 2.1875 0.015625 L 1.40625 -0.03125 C 0.9375 -0.0625 0.703125 -0.125 0.703125 -0.21875 L 0.703125 -9.625 C 0.703125 -9.78125 1.164062 -9.859375 2.09375 -9.859375 C 3.03125 -9.859375 3.5 -9.78125 3.5 -9.625 L 3.5 -6.03125 L 5.203125 -9.625 C 5.273438 -9.75 5.648438 -9.8125 6.328125 -9.8125 C 7.566406 -9.8125 8.21875 -9.703125 8.28125 -9.484375 C 8.28125 -9.472656 8.28125 -9.457031 8.28125 -9.4375 L 5.84375 -5.046875 L 8.671875 -1.140625 C 8.671875 -1.117188 8.582031 -1.035156 8.40625 -0.890625 C 7.96875 -0.523438 7.460938 -0.234375 6.890625 -0.015625 C 6.710938 0.046875 6.535156 0.078125 6.359375 0.078125 L 6.015625 0.0625 C 5.722656 -0.0195312 5.488281 -0.210938 5.3125 -0.515625 L 3.71875 -3.5625 L 3.5 -3.5625 Z M 3.5 -0.203125 "/></g></g></g></svg>